<svg xmlns="http://www.w3.org/2000/svg" xmlns:xlink="http://www.w3.org/1999/xlink" fill="none" version="1.1" width="8" height="8" viewBox="0 0 8 8"><g style="mix-blend-mode:passthrough"><g><path d="M4.404679375000001,3.625209375C4.705589375000001,3.480269375,5.003529374999999,3.329229375,5.298299375,3.172189375C5.518829375,3.050469375,5.744869375,2.939029375,5.975689375,2.8381993750000003C6.143539375,2.769259375,6.275419375,2.731579375,6.377329375,2.731579375C6.545179375,2.731579375,6.689049375,2.788099375,6.814509375,2.907999375C6.934399375,3.027889375,7.000339375,3.172189375,7.000339375,3.348169375C7.000339375,3.449649375,6.970369375,3.555839375,6.910419375,3.662889375C6.850469375,3.769929375,6.784959375,3.839729375,6.719019375,3.871409375C6.101579375,4.129179375,5.412199375,4.318009375,4.668869375,4.431049375000001C4.806749375,4.556939375,4.968599375,4.733779375,5.166419375,4.953859375C5.364239375,5.174379375,5.466149375,5.287849375,5.478139375,5.306259375C5.550079375,5.413299375,5.651979375,5.546039375,5.783859375,5.703189375C5.915749375,5.860759375,6.005659375,5.980649375,6.053619375,6.068429375C6.101579375,6.156629375,6.131549375,6.263249375,6.131549375,6.389569375C6.131979375,6.547989375,6.069459375,6.699999375,5.957709375,6.811759375C5.840389375,6.933789375,5.676819375,7.000159375,5.508109375,6.994159375C5.328279375,6.994159375,5.118469375,6.843009375,4.890669375,6.547139375C4.662879375,6.257259375,4.363149375,5.722879375,4.003469375,4.9482993749999995C3.637799375,5.640239375,3.392019375,6.106539375,3.272129375,6.327049375C3.146249375,6.547139375,3.026349375,6.716699375,2.912459375,6.830169375C2.809589375,6.938859375,2.666469375,7.000349375,2.5168093750000002,7.000159375C2.347239375,7.004909375,2.184449375,6.933419375,2.0732093750000002,6.805329375C1.9654093750000001,6.693469375,1.903391375,6.545299375,1.8993713749999999,6.389989375C1.8993713749999999,6.251259375,1.923349375,6.150209375,1.9713063750000002,6.080839375C2.4149093749999997,5.451409375,2.8764893750000002,4.896909375,3.356059375,4.437899375000001C2.9934893750000002,4.379339375,2.633499375,4.305769375000001,2.2770293749999997,4.217379375C1.9302803750000002,4.124709375,1.591503375,4.0044393750000005,1.263944375,3.857709375C1.203999375,3.827309375,1.150476375,3.757939375,1.096096575,3.650899375C1.037325475,3.563269375,1.006018707,3.460099375,1.006177748,3.354589375C1.000600235,3.187719375,1.068534475,3.026809375,1.192010375,2.914419375C1.303766375,2.799659375,1.457484375,2.735869375,1.617625375,2.738009375C1.731523375,2.738009375,1.875393375,2.775689375,2.049239375,2.8450493750000003C2.223079375,2.920409375,2.438879375,3.021459375,2.7086393749999997,3.166189375C2.978399375,3.304489375,3.278129375,3.461639375,3.619819375,3.632059375C3.552859375,3.269249375,3.500859375,2.903839375,3.463959375,2.536759375C3.421999375,2.127409375,3.404009375,1.844383375,3.404009375,1.6932343749999998C3.404009375,1.503976375,3.457959375,1.346404375,3.571859375,1.214095375C3.676529375,1.079331575,3.838869375,1.002134325,4.009469375,1.005997814C4.183309375,1.005997814,4.327179375,1.074935575,4.441079375,1.207673375C4.554969375000001,1.346404375,4.608929375000001,1.522388375,4.608929375000001,1.742904375C4.608929375000001,1.805419375,4.596939375,1.925310375,4.584949375,2.102579375C4.572959375,2.2845593749999997,4.542989374999999,2.4986493750000003,4.513009375,2.750419375C4.472759375,3.041609375,4.436779375,3.333379375,4.405109375,3.625629375L4.404679375000001,3.625209375Z" fill="#F84439" fill-opacity="1"/></g></g></svg>