<svg xmlns="http://www.w3.org/2000/svg" xmlns:xlink="http://www.w3.org/1999/xlink" fill="none" version="1.1" width="16" height="16" viewBox="0 0 16 16"><g style="mix-blend-mode:passthrough"><g><g style="mix-blend-mode:passthrough"></g><g style="mix-blend-mode:passthrough"><path d="M11.263828125,10.68L13.783828125,13.2C13.973828125,13.38,13.973828125,13.68,13.783828125,13.86C13.703828125,13.95,13.583828125,14,13.453828125,14C13.333828125,14,13.213828125,13.95,13.123828125,13.86L10.613828125,11.34C9.693828125,12.12,8.503828125,12.59,7.203828125,12.59C4.283828124999999,12.59,1.923828125,10.22,1.923828125,7.29C1.923828125,4.37,4.283828124999999,2,7.203828125,2C10.123828125,2,12.483828125,4.37,12.483828125,7.29C12.483828125,8.530000000000001,12.053828125,9.73,11.263828125,10.68ZM11.556568125,7.28993C11.556568125,8.44993,11.096568125,9.55993,10.276568125,10.37993C9.466568125,11.18993,8.356568124999999,11.64993,7.206568125,11.64993C6.046568125,11.64993,4.946568125000001,11.18993,4.126568125,10.37993C3.316568125,9.55993,2.8565671249999998,8.44993,2.8565671249999998,7.28993C2.8565671249999998,6.13993,3.316568125,5.02993,4.126568125,4.20993C4.946568125000001,3.38993,6.046568125,2.929932,7.206568125,2.929932C8.356568124999999,2.929932,9.466568125,3.38993,10.286568125,4.20993C11.096568125,5.02993,11.556568125,6.13993,11.556568125,7.28993Z" fill-rule="evenodd" fill="#FFFFFF" fill-opacity="1"/></g></g></g></svg>