<svg xmlns="http://www.w3.org/2000/svg" xmlns:xlink="http://www.w3.org/1999/xlink" fill="none" version="1.1" width="16" height="16" viewBox="0 0 16 16"><g style="mix-blend-mode:passthrough"><g><path d="M13.863709375,13.2013171875L11.342739375,10.6752771875C13.859309375,7.6471071875,12.306309375,3.0292371874999997,8.471409375,2.1369931875C4.636479375,1.2447511875,1.204574375,4.7028171875,2.125915375,8.5308571875C3.0472593750000003,12.3589171875,7.676769375,13.8767171875,10.685749375,11.3372771875L13.204709375,13.8623171875C13.385209375,14.0557171875,13.690209375,14.0608171875,13.877009375,13.8735171875C14.063809375,13.6861171875,14.057809375,13.3811171875,13.863709375,13.2013171875ZM7.280739375,11.6522671875C4.417589375,11.6552171875,2.331009375,8.9412871875,3.069629375,6.1750471875C3.808259375,3.4088171875,6.969959375,2.0962451875,9.450549375,3.5260271875C11.931139375,4.955827187500001,12.380109375,8.3495771875,10.356739375,10.3752771875C9.542289375,11.1934571875,8.435189375,11.6530671875,7.280739375,11.6522671875Z" fill="#606266" fill-opacity="1"/></g></g></svg>